<svg width="235" height="137" viewBox="0 0 235 137" fill="none" xmlns="http://www.w3.org/2000/svg">
<path d="M124.605 13.6559C185.465 21.2715 231.732 51.7055 228.041 81.7673C224.339 111.916 171.79 130.273 110.67 122.769C49.5488 115.264 3.00155 84.7395 6.70339 54.5904C10.3945 24.5288 62.65 6.19194 123.544 13.5255C123.721 13.5464 123.898 13.5667 124.075 13.5884C124.252 13.6102 124.429 13.6333 124.605 13.6559ZM123.903 14.9928C99.0469 11.9409 75.646 33.0249 72.0135 62.6095C68.3927 92.0986 85.8728 118.143 110.602 121.333C110.682 121.343 110.762 121.354 110.842 121.364C110.922 121.374 111.002 121.382 111.082 121.392C135.848 124.28 159.11 103.238 162.731 73.7482C166.364 44.1636 148.759 18.0447 123.903 14.9928ZM110.506 14.1944C94.7826 14.2625 80.3148 17.9114 68.7805 24.1882C54.0302 32.2153 44.1788 44.4689 42.3979 58.9724C40.6171 73.4759 47.2116 87.7488 59.5818 99.1058C69.2535 107.985 82.4064 115.024 97.6438 118.895C79.1188 109.831 67.5713 87.1919 70.6108 62.4373C73.6506 37.6796 90.3355 18.5047 110.506 14.1944ZM137.094 17.4589C155.623 26.5207 167.174 49.1625 164.134 73.9204C161.094 98.6753 144.413 117.848 124.245 122.161C139.966 122.092 154.431 118.444 165.964 112.168C180.715 104.141 190.566 91.8873 192.347 77.3838C194.128 62.8803 187.533 48.6074 175.163 37.2503C165.49 28.3694 152.334 21.3288 137.094 17.4589ZM100.138 13.3465C78.9772 13.0361 59.7155 15.9279 44.3228 21.305C23.2329 28.6723 9.85526 40.5168 8.10608 54.7626C6.35691 69.0085 16.4718 83.7375 35.1529 95.9881C48.7903 104.931 66.7851 112.397 87.398 117.215C57.6375 106.348 38.0161 83.0631 40.9953 58.8002C43.974 34.5406 68.6391 16.6943 100.138 13.3465ZM147.359 19.1445C177.113 30.013 196.728 53.2962 193.749 77.556C190.77 101.819 166.098 119.665 134.593 123.009C155.759 123.321 175.026 120.431 190.422 115.053C211.512 107.685 224.889 95.8409 226.638 81.5951C228.388 67.3492 218.273 52.6202 199.592 40.3696C185.957 31.4283 167.967 23.9626 147.359 19.1445ZM112.12 104.686C113.431 104.847 114.492 105.292 115.297 106.025L115.444 106.16C116.17 106.844 116.683 107.664 116.984 108.616C117.304 109.629 117.399 110.663 117.269 111.716C117.14 112.769 116.796 113.758 116.239 114.682L116.239 114.683C115.682 115.591 114.926 116.302 113.973 116.817L113.972 116.816C113.016 117.314 111.88 117.48 110.569 117.319C109.276 117.161 108.216 116.716 107.392 115.981L107.391 115.98C106.591 115.25 106.03 114.377 105.709 113.361L105.709 113.361C105.392 112.329 105.298 111.287 105.427 110.234C105.556 109.181 105.897 108.21 106.45 107.323C107.007 106.415 107.762 105.712 108.714 105.217C109.672 104.7 110.809 104.525 112.12 104.686ZM112.019 105.512C110.902 105.375 109.935 105.527 109.114 105.963C108.307 106.404 107.668 107.013 107.196 107.792C106.723 108.573 106.43 109.423 106.317 110.343C106.204 111.262 106.282 112.167 106.55 113.059L106.666 113.387C106.959 114.14 107.4 114.797 107.991 115.358L107.99 115.358C108.662 115.977 109.554 116.357 110.67 116.494C111.787 116.631 112.745 116.478 113.547 116.04L113.547 116.039C114.372 115.601 115.022 114.984 115.496 114.187C115.972 113.386 116.267 112.526 116.379 111.607C116.492 110.688 116.414 109.792 116.143 108.919L116.143 108.918C115.876 108.029 115.404 107.274 114.728 106.652C114.056 106.033 113.155 105.651 112.019 105.512ZM111.899 106.954C112.739 107.057 113.323 107.359 113.625 107.876C113.918 108.357 114.041 108.833 113.983 109.301C113.92 109.821 113.697 110.256 113.318 110.602C113.037 110.859 112.705 110.995 112.325 111.015C112.517 111.088 112.67 111.199 112.779 111.352C112.95 111.592 113.002 111.918 112.953 112.32L112.795 113.604C112.782 113.71 112.776 113.836 112.777 113.982C112.785 114.03 112.806 114.063 112.836 114.087C112.868 114.114 112.919 114.134 112.994 114.144C113.085 114.155 113.147 114.13 113.195 114.076C113.246 114.016 113.287 113.912 113.307 113.752L113.474 112.389L114.139 112.471L113.958 113.944C113.926 114.201 113.824 114.456 113.655 114.708L113.653 114.71C113.466 114.971 113.132 115.056 112.688 115.001C112.316 114.956 112.04 114.813 111.879 114.562L111.877 114.558C111.725 114.298 111.671 114 111.712 113.669L111.88 112.301C111.929 111.897 111.875 111.638 111.748 111.494L111.745 111.491C111.634 111.35 111.38 111.242 110.949 111.189L110.547 111.14L110.208 113.895L111.087 114.108L111.155 114.125L111.086 114.691L108.106 114.325L108.176 113.759L108.245 113.759L109.121 113.762L109.902 107.396L109.052 107.187L108.985 107.171L109.054 106.605L111.899 106.954ZM110.638 110.397L111.21 110.467C111.71 110.529 112.089 110.482 112.355 110.34C112.608 110.204 112.776 109.906 112.836 109.415L112.881 109.052C112.936 108.601 112.851 108.261 112.64 108.019C112.427 107.775 112.075 107.615 111.567 107.553L110.996 107.483L110.638 110.397ZM114.504 73.2744C115.49 73.3955 116.333 73.7321 117.033 74.2845C117.733 74.837 118.241 75.5581 118.557 76.4475C118.886 77.3386 118.979 78.3654 118.837 79.5277C118.82 79.6629 118.798 79.7907 118.769 79.9107L118.72 80.3166L111.446 79.4235C111.437 80.1639 111.57 80.7564 111.843 81.2009C112.211 81.7811 112.767 82.1167 113.51 82.2079C114.009 82.2692 114.456 82.2079 114.849 82.0229C115.242 81.8379 115.556 81.5128 115.791 81.0478L118.235 82.0884C117.838 82.9728 117.193 83.6414 116.301 84.0944C115.423 84.5491 114.355 84.6997 113.099 84.5454C112.113 84.4244 111.264 84.0798 110.552 83.5122C109.84 82.9446 109.319 82.2148 108.99 81.3236C108.676 80.4207 108.588 79.408 108.725 78.2863C108.867 77.1375 109.205 76.1707 109.74 75.3858C110.277 74.5874 110.958 74.0051 111.784 73.6401C112.611 73.275 113.518 73.1533 114.504 73.2744ZM134.034 86.8485L131.339 86.5175L131.552 84.7819C131.387 85.0372 131.202 85.2658 130.995 85.4665C130.231 86.2233 129.301 86.5347 128.207 86.4004C127.383 86.2992 126.68 85.9863 126.1 85.4622C125.535 84.9264 125.128 84.2176 124.88 83.3365C124.645 82.457 124.601 81.4291 124.745 80.2532C124.889 79.0773 125.181 78.0907 125.622 77.2942C126.076 76.4993 126.641 75.9171 127.317 75.5473C128.009 75.1657 128.767 75.0257 129.591 75.1268C130.685 75.2612 131.512 75.7884 132.071 76.7076C132.223 76.9487 132.348 77.2125 132.446 77.4982L133.119 72.0202L135.814 72.3511L134.034 86.8485ZM102.63 68.0084C102.995 68.0532 103.317 68.1134 103.595 68.1888C103.874 68.2641 104.144 68.3593 104.404 68.4736L104.125 70.7446C103.931 70.6521 103.727 70.5786 103.514 70.525C103.317 70.4596 103.089 70.4118 102.833 70.3803C102.346 70.3206 101.953 70.3956 101.653 70.6057C101.368 70.804 101.198 71.1261 101.144 71.5721L101.104 71.8965L107.811 72.7201L106.492 83.4667L103.797 83.1358L104.84 74.6396L100.827 74.147L99.7842 82.6431L97.1097 82.3147L98.1529 73.8186L96.7548 73.6469L97.0311 71.3965L98.4292 71.5681L98.4566 71.345C98.6126 70.0744 99.0531 69.1682 99.7778 68.626C100.518 68.072 101.469 67.8658 102.63 68.0084ZM122.443 85.4253L119.748 85.0944L121.528 70.5971L124.223 70.928L122.443 85.4253ZM130.247 77.6564C129.544 77.5702 128.945 77.7646 128.448 78.2387C127.965 78.7145 127.655 79.4993 127.521 80.594C127.386 81.6889 127.496 82.5258 127.851 83.1044C128.218 83.6847 128.753 84.0184 129.455 84.1047C130.158 84.1909 130.751 83.9957 131.234 83.5199C131.731 83.0458 132.047 82.2611 132.182 81.1663C132.316 80.0717 132.199 79.2344 131.832 78.6542C131.478 78.0756 130.949 77.7427 130.247 77.6564ZM114.225 75.5454C113.536 75.4608 112.943 75.6554 112.446 76.1294C112.126 76.4365 111.88 76.9073 111.707 77.5415L116.144 78.0863C116.133 77.4298 116.017 76.9142 115.789 76.5399C115.462 75.9647 114.941 75.6334 114.225 75.5454ZM106.989 68.1941C107.448 68.2505 107.815 68.4467 108.089 68.7823C108.365 69.1042 108.473 69.5083 108.413 69.9948C108.353 70.4813 108.15 70.8542 107.803 71.1134C107.457 71.3592 107.055 71.4537 106.595 71.3973C106.15 71.3426 105.789 71.1543 105.513 70.8323C105.239 70.4968 105.132 70.0857 105.191 69.5992C105.251 69.1127 105.454 68.7468 105.799 68.5011C106.146 68.2419 106.543 68.1394 106.989 68.1941ZM14.3526 53.4578L15.8253 53.6387L15.7542 54.2175L14.2709 54.0353L13.8553 57.4198C13.8214 57.6963 13.8508 57.907 13.9438 58.0514C14.0377 58.1883 14.1756 58.2677 14.3572 58.29C14.4809 58.3052 14.6005 58.2943 14.7159 58.2567C14.8385 58.2201 14.975 58.1627 15.1248 58.0851L15.3518 58.4013C15.0062 58.7504 14.553 58.8907 13.9929 58.822C13.6147 58.7755 13.3253 58.6361 13.1248 58.4046C12.9246 58.1732 12.8504 57.8467 12.9021 57.4249L12.9517 57.0205C12.976 56.8831 13.0008 56.7088 13.0267 56.4978L13.3431 53.9214L12.4374 53.8102L12.4964 53.3296L13.4823 53.3286L13.9458 51.9004L14.6004 51.9808L14.3526 53.4578ZM18.5386 53.8272C18.9166 53.8737 19.248 53.9996 19.5329 54.2044C19.8178 54.4094 20.0324 54.6794 20.1758 55.0147C20.3201 55.3427 20.3647 55.729 20.3102 56.173C20.295 56.2965 20.2732 56.4118 20.2453 56.5191C20.2182 56.6192 20.1898 56.7051 20.159 56.7752L16.6778 56.3478C16.6102 57.019 16.7153 57.5493 16.9924 57.9379C17.2696 58.3264 17.6702 58.553 18.1938 58.6173C18.5429 58.6601 18.8425 58.6263 19.0923 58.5166C19.3428 58.3996 19.5805 58.2404 19.8045 58.0389L20.0408 58.279C19.7898 58.6396 19.475 58.9147 19.0973 59.1047C18.7205 59.2875 18.2846 59.3489 17.79 59.2882C17.0555 59.198 16.4955 58.8888 16.1099 58.3614C15.7252 57.8266 15.5839 57.1404 15.6866 56.3034C15.7554 55.7429 15.9285 55.2692 16.2049 54.882C16.4886 54.4957 16.8338 54.2092 17.2406 54.0227C17.6547 53.8371 18.0876 53.7719 18.5386 53.8272ZM23.6424 54.4539C23.9697 54.4941 24.2641 54.5933 24.5253 54.7509C24.7865 54.9086 24.9946 55.108 25.1496 55.3486C25.3054 55.582 25.3884 55.836 25.399 56.1106C25.3142 56.3809 25.1301 56.4988 24.8465 56.4641C24.6648 56.4417 24.5321 56.3776 24.4491 56.2715C24.3744 56.1589 24.328 56.0236 24.3103 55.8664L24.2024 55.1218C24.1051 55.0729 24.0062 55.0386 23.9053 55.0188C23.8125 54.9927 23.7187 54.9735 23.6241 54.9619C23.1586 54.9048 22.7511 55.0396 22.401 55.366C22.058 55.6933 21.8435 56.2063 21.7577 56.905C21.6738 57.5891 21.773 58.1331 22.0556 58.5372C22.3383 58.9413 22.7344 59.1748 23.2436 59.2373C23.5562 59.2757 23.8519 59.242 24.1306 59.136C24.4104 59.0225 24.6506 58.8408 24.851 58.5921L25.106 58.7679C24.8978 59.2003 24.6079 59.5159 24.2365 59.7141C23.8653 59.9121 23.4215 59.9796 22.9053 59.9163C22.1561 59.8243 21.5897 59.5068 21.2058 58.9647C20.822 58.4226 20.6811 57.733 20.7839 56.896C20.8545 56.3211 21.0314 55.8442 21.3141 55.4652C21.6051 55.0798 21.9569 54.8018 22.3692 54.6308C22.7815 54.4597 23.206 54.4003 23.6424 54.4539ZM211.835 77.561C212.409 77.6316 212.817 77.8298 213.057 78.1549C213.299 78.4727 213.377 78.9774 213.293 79.6688L213.007 81.9939C212.978 82.2268 212.994 82.3991 213.054 82.5099C213.115 82.6134 213.204 82.6721 213.321 82.6864C213.415 82.698 213.498 82.6859 213.568 82.6503C213.639 82.6147 213.708 82.5643 213.776 82.4987L213.965 82.7655C213.808 82.9605 213.643 83.0919 213.473 83.1596C213.31 83.2208 213.135 83.2402 212.946 83.2171C212.684 83.1849 212.474 83.0809 212.319 82.9066C212.163 82.7324 212.079 82.5155 212.066 82.2556C211.732 82.5101 211.444 82.6963 211.2 82.8141C210.957 82.932 210.675 82.9715 210.355 82.9323C209.955 82.8831 209.624 82.7274 209.36 82.4661C209.105 82.1984 209.006 81.8391 209.061 81.388C209.087 81.1769 209.158 80.9855 209.275 80.8152C209.399 80.6458 209.603 80.49 209.886 80.3475C210.17 80.205 210.566 80.0764 211.075 79.9616C211.249 79.9239 211.449 79.8854 211.675 79.8467C211.902 79.808 212.128 79.7769 212.352 79.7528L212.386 79.4794C212.451 78.9482 212.414 78.5856 212.275 78.3912C212.136 78.1969 211.885 78.0775 211.522 78.0328C211.442 78.023 211.351 78.0153 211.248 78.01C211.153 78.0057 211.045 78.0112 210.925 78.026L210.63 78.7103C210.485 79.0468 210.275 79.1985 209.998 79.1646C209.693 79.1271 209.54 78.9566 209.54 78.6538C209.693 78.2516 209.973 77.9535 210.381 77.7598C210.797 77.5596 211.282 77.4931 211.835 77.561ZM220.062 78.5712C220.637 78.6418 221.044 78.84 221.285 79.1651C221.526 79.4829 221.605 79.9875 221.52 80.679L221.234 83.0041C221.206 83.237 221.221 83.4092 221.282 83.5201C221.343 83.6236 221.432 83.6823 221.548 83.6966C221.643 83.7082 221.725 83.6961 221.796 83.6605C221.867 83.6249 221.936 83.5745 222.003 83.5089L222.192 83.7756C222.035 83.9707 221.871 84.1021 221.7 84.1698C221.538 84.231 221.362 84.2504 221.173 84.2273C220.911 84.1951 220.702 84.0918 220.546 83.9176C220.39 83.7433 220.306 83.5259 220.294 83.2658C219.96 83.5203 219.671 83.7065 219.428 83.8243C219.185 83.9422 218.903 83.9817 218.583 83.9425C218.183 83.8933 217.851 83.7376 217.588 83.4763C217.333 83.2086 217.233 82.8493 217.288 82.3982C217.314 82.1873 217.386 81.9964 217.502 81.8261C217.627 81.6567 217.83 81.5003 218.114 81.3577C218.397 81.2152 218.793 81.0866 219.302 80.9718C219.477 80.9341 219.677 80.8957 219.903 80.857C220.13 80.8183 220.355 80.7871 220.579 80.763L220.613 80.4896C220.678 79.9584 220.641 79.5957 220.502 79.4014C220.364 79.2072 220.113 79.0877 219.749 79.043C219.669 79.0332 219.578 79.0254 219.475 79.0202C219.38 79.0159 219.272 79.0214 219.152 79.0362L218.858 79.7206C218.713 80.0573 218.502 80.2087 218.226 80.1748C217.92 80.1373 217.768 79.9669 217.768 79.664C217.921 79.2616 218.201 78.9638 218.609 78.7701C219.025 78.57 219.509 78.5034 220.062 78.5712ZM208.924 74.5103L208.691 76.0556L207.965 81.9624L208.833 82.2018L208.785 82.5948L207.08 82.4961L207.096 81.7335C206.877 81.9578 206.634 82.1239 206.37 82.2319C206.113 82.3406 205.813 82.3738 205.472 82.3318C205.028 82.2773 204.653 82.1169 204.346 81.8504C204.039 81.5837 203.815 81.2384 203.675 80.8149C203.544 80.385 203.511 79.9045 203.576 79.3733C203.645 78.8129 203.806 78.3376 204.061 77.9478C204.315 77.5579 204.632 77.2679 205.01 77.0778C205.387 76.8878 205.798 76.8199 206.242 76.8743C206.497 76.9056 206.734 76.9867 206.954 77.1171C207.182 77.2485 207.392 77.4627 207.584 77.7596L207.887 75.2921L206.973 75.0693L207.02 74.687L208.782 74.4047L208.924 74.5103ZM216.115 78.2304L217.588 78.4112L217.517 78.99L216.033 78.8078L215.617 82.1922C215.583 82.4686 215.613 82.6795 215.706 82.8239C215.8 82.961 215.938 83.041 216.12 83.0633C216.243 83.0785 216.363 83.0676 216.478 83.0301C216.601 82.9934 216.737 82.9359 216.887 82.8583L217.114 83.1746C216.769 83.5237 216.316 83.6633 215.756 83.5945C215.377 83.5481 215.088 83.4094 214.887 83.1779C214.687 82.9464 214.613 82.6196 214.665 82.1974L214.714 81.7938C214.738 81.6565 214.763 81.4821 214.789 81.2711L215.106 78.694L214.2 78.5828L214.259 78.1022L215.245 78.1019L215.708 76.6737L216.363 76.7541L216.115 78.2304ZM27.8604 52.2793L27.6267 53.8237L27.3679 55.931C27.6737 55.6657 28.0161 55.464 28.3948 55.3258C28.7743 55.1804 29.1386 55.1288 29.4876 55.1716C29.9604 55.2297 30.2905 55.4329 30.4767 55.7809C30.6709 56.1224 30.7238 56.6497 30.6362 57.3628L30.407 59.2302C30.3749 59.5512 30.3458 59.8504 30.3192 60.1277L31.0645 60.3746L31.0163 60.7676L28.4849 60.4568L28.5331 60.0638L29.3466 60.0199C29.3878 59.7442 29.4287 59.446 29.468 59.1257C29.5155 58.7992 29.5541 58.5123 29.5845 58.2649L29.6985 57.3366C29.7601 56.8344 29.7338 56.4801 29.6188 56.2739C29.5039 56.0677 29.2857 55.9446 28.9657 55.9053C28.6966 55.8723 28.4355 55.8964 28.1821 55.9761C27.9287 56.0558 27.648 56.2055 27.3404 56.4262L27.0467 58.8176C27.0147 59.1386 26.9856 59.4378 26.9589 59.7152L27.6929 59.9607L27.6446 60.3536L25.1132 60.0428L25.1615 59.6498L25.9984 59.5972C26.0397 59.3216 26.0797 59.0238 26.119 58.7037C26.1664 58.3771 26.2054 58.0938 26.2349 57.8536L26.8235 53.0603L25.9418 52.8415L25.9888 52.4592L27.7189 52.173L27.8604 52.2793ZM206.329 77.5166C206.06 77.4836 205.799 77.5291 205.548 77.6534C205.304 77.7713 205.094 77.9823 204.917 78.2856C204.74 78.5816 204.621 78.9768 204.56 79.4717C204.473 80.185 204.55 80.7304 204.791 81.1073C205.041 81.4778 205.385 81.6896 205.821 81.7432C206.061 81.7726 206.278 81.7514 206.471 81.6792C206.673 81.6005 206.89 81.461 207.121 81.2604L207.493 78.2362C207.272 77.9874 207.068 77.8108 206.882 77.7066C206.695 77.6025 206.511 77.539 206.329 77.5166ZM220.53 81.1666C220.335 81.1943 220.142 81.2303 219.952 81.2735C219.763 81.3093 219.607 81.3414 219.486 81.3708C219.158 81.4561 218.909 81.5551 218.74 81.6673C218.571 81.7796 218.454 81.8947 218.388 82.0122C218.329 82.1305 218.293 82.2445 218.28 82.3537C218.244 82.6447 218.302 82.8625 218.454 83.0067C218.606 83.1509 218.806 83.2386 219.053 83.2689C219.162 83.2823 219.266 83.2797 219.364 83.2622C219.469 83.2456 219.596 83.2057 219.744 83.1427C219.893 83.0723 220.087 82.9708 220.325 82.8375L220.53 81.1666ZM212.302 80.1564C212.107 80.1841 211.914 80.22 211.724 80.2632C211.535 80.299 211.38 80.3313 211.258 80.3606C210.93 80.4459 210.682 80.5449 210.513 80.6571C210.344 80.7694 210.227 80.8845 210.161 81.002C210.102 81.1202 210.066 81.2337 210.052 81.3427C210.017 81.6338 210.074 81.8522 210.226 81.9965C210.378 82.1407 210.579 82.2276 210.826 82.258C210.935 82.2713 211.039 82.2695 211.137 82.252C211.242 82.2354 211.369 82.1956 211.517 82.1325C211.666 82.0621 211.859 81.9606 212.097 81.8273L212.302 80.1564ZM18.4106 54.3218C18.2071 54.2968 17.9925 54.3293 17.7674 54.4198C17.5495 54.5113 17.3487 54.6751 17.1648 54.9109C16.988 55.1477 16.8517 55.4746 16.7562 55.8912L18.7419 56.135C19.0038 56.1672 19.1816 56.1336 19.275 56.0343C19.3756 55.9359 19.4358 55.8068 19.4555 55.6467C19.4814 55.4357 19.4506 55.2359 19.3629 55.0478C19.2834 54.8535 19.1594 54.6907 18.991 54.5592C18.8299 54.4286 18.6361 54.3494 18.4106 54.3218ZM106.999 52.5627C107.985 52.6838 108.828 53.0205 109.528 53.5728C110.228 54.1252 110.736 54.8465 111.052 55.7358C111.381 56.627 111.474 57.6543 111.332 58.8168C111.315 58.9519 111.293 59.0798 111.264 59.1997L111.215 59.6049L103.941 58.7118C103.933 59.4521 104.065 60.0446 104.338 60.4891C104.706 61.0694 105.262 61.4057 106.005 61.4969C106.504 61.5583 106.951 61.4962 107.344 61.3112C107.737 61.1261 108.051 60.8011 108.286 60.3361L110.73 61.3775C110.333 62.2617 109.688 62.9305 108.796 63.3835C107.918 63.838 106.85 63.988 105.594 63.8337C104.608 63.7126 103.759 63.3682 103.047 62.8005C102.335 62.2329 101.814 61.5038 101.485 60.6126C101.171 59.7097 101.083 58.6971 101.22 57.5753C101.361 56.4263 101.7 55.4591 102.235 54.6741C102.772 53.8756 103.454 53.2935 104.28 52.9285C105.107 52.5635 106.013 52.4416 106.999 52.5627ZM116.661 54.0165L119.6 54.3773L119.324 56.6278L116.385 56.267L115.822 60.8494C115.753 61.4171 115.843 61.8609 116.092 62.1796C116.354 62.4998 116.749 62.6925 117.275 62.7571C117.532 62.7886 117.771 62.7972 117.992 62.7832C118.214 62.7557 118.444 62.729 118.68 62.7031L118.382 65.1363C118.061 65.1793 117.736 65.2007 117.407 65.2015C117.076 65.2157 116.701 65.1975 116.282 65.146C115.148 65.0067 114.295 64.579 113.725 63.8642C113.156 63.1358 112.95 62.1364 113.106 60.866L113.711 55.9386L112.312 55.7669L112.589 53.5165L113.987 53.6881L114.261 51.4575L117 51.2589L116.661 54.0165ZM137.18 56.2684C138.166 56.3895 139.01 56.7262 139.71 57.2787C140.41 57.8311 140.918 58.5522 141.233 59.4417C141.563 60.3327 141.656 61.3595 141.513 62.5219C141.497 62.657 141.474 62.7848 141.446 62.9047L141.396 63.3106L134.122 62.4175C134.114 63.158 134.246 63.7505 134.52 64.195C134.888 64.7752 135.443 65.1106 136.186 65.2019C136.686 65.2633 137.132 65.2019 137.525 65.017C137.918 64.832 138.232 64.5068 138.468 64.0419L140.911 65.0825C140.514 65.9668 139.87 66.6355 138.978 67.0886C138.1 67.5432 137.032 67.6938 135.776 67.5396C134.79 67.4185 133.941 67.0739 133.229 66.5064C132.517 65.9388 131.996 65.2095 131.667 64.3185C131.352 63.4155 131.265 62.4024 131.402 61.2804C131.543 60.1316 131.882 59.1649 132.417 58.38C132.954 57.5815 133.635 56.9993 134.461 56.6342C135.288 56.2692 136.194 56.1474 137.18 56.2684ZM100.232 62.9078L97.253 62.5421L96.5968 58.9828L91.2494 58.3262L89.776 61.624L86.858 61.2657L93.1759 47.8397L97.3497 48.3521L100.232 62.9078ZM123.486 56.5768C123.868 56.0198 124.324 55.6048 124.852 55.3315C125.466 55.0227 126.144 54.9134 126.887 55.0046C127.59 55.0909 128.19 55.3428 128.687 55.7606C129.199 56.1665 129.572 56.7063 129.805 57.3797C130.039 58.0397 130.101 58.8159 129.992 59.708L129.163 66.4601L126.468 66.1292L127.229 59.9246C127.327 59.1271 127.205 58.5012 126.863 58.0475C126.521 57.594 126.06 57.332 125.479 57.2607C124.898 57.1893 124.387 57.332 123.945 57.6893C123.559 58.002 123.304 58.4834 123.181 59.133L123.136 59.422L122.374 65.6266L119.679 65.2957L121.459 50.7984L124.154 51.1293L123.486 56.5768ZM149.44 60.8814L148.265 60.7371C147.589 60.6542 147.034 60.7645 146.599 61.0676C146.18 61.3591 145.917 61.9308 145.813 62.7823L145.12 68.4194L142.425 68.0885L143.745 57.342L146.44 57.6729L146.159 59.9644C146.524 59.2226 146.989 58.6614 147.558 58.2832C148.185 57.8663 148.938 57.7121 149.816 57.8199L149.44 60.8814ZM92.3205 55.9267L96.1191 56.3931L94.9481 50.0425L92.3205 55.9267ZM106.72 54.8337C106.031 54.7491 105.438 54.9437 104.941 55.4177C104.621 55.7247 104.375 56.1957 104.202 56.8298L108.639 57.3746C108.628 56.7181 108.512 56.2024 108.285 55.8282C107.958 55.2531 107.436 54.9216 106.72 54.8337ZM136.901 58.5394C136.212 58.455 135.62 58.6496 135.123 59.1235C134.803 59.4306 134.557 59.9015 134.384 60.5356L138.821 61.0804C138.81 60.424 138.694 59.9083 138.466 59.5341C138.139 58.9588 137.617 58.6274 136.901 58.5394ZM113.181 21.1177C113.559 21.1642 113.891 21.2901 114.176 21.495C114.461 21.6999 114.675 21.9699 114.818 22.3052C114.962 22.6331 115.008 23.0189 114.953 23.4628C114.938 23.5865 114.916 23.7023 114.888 23.8097C114.861 23.9097 114.832 23.9948 114.801 24.0649L111.321 23.6376C111.253 24.309 111.358 24.839 111.635 25.2277C111.913 25.6164 112.313 25.8428 112.837 25.9071C113.186 25.9499 113.485 25.9168 113.735 25.8071C113.986 25.6902 114.223 25.5307 114.447 25.3294L114.683 25.5687C114.432 25.9294 114.118 26.2052 113.74 26.3953C113.363 26.578 112.928 26.6387 112.433 26.578C111.698 26.4878 111.139 26.1788 110.753 25.6512C110.368 25.1164 110.227 24.4308 110.33 23.5939C110.398 23.0337 110.571 22.5596 110.847 22.1724C111.131 21.7861 111.477 21.4997 111.883 21.3133C112.298 21.1277 112.73 21.0624 113.181 21.1177ZM117.961 21.7047C118.536 21.7752 118.943 21.9728 119.184 22.2978C119.425 22.6155 119.504 23.1204 119.419 23.8117L119.133 26.1375C119.105 26.3702 119.121 26.5419 119.181 26.6528C119.242 26.7563 119.331 26.8157 119.447 26.83C119.541 26.8416 119.624 26.8295 119.695 26.794C119.766 26.7584 119.835 26.7073 119.902 26.6416L120.091 26.9091C119.934 27.1041 119.77 27.2356 119.599 27.3033C119.437 27.3644 119.261 27.3831 119.072 27.3599C118.81 27.3278 118.602 27.2245 118.446 27.0503C118.29 26.8761 118.205 26.6586 118.193 26.3985C117.859 26.653 117.57 26.8392 117.327 26.957C117.084 27.0749 116.802 27.1144 116.482 27.0752C116.082 27.026 115.75 26.8711 115.487 26.6097C115.232 26.342 115.132 25.9822 115.188 25.5309C115.213 25.3199 115.285 25.1291 115.401 24.9588C115.526 24.7894 115.73 24.6337 116.013 24.4912C116.296 24.3487 116.693 24.2193 117.201 24.1045C117.376 24.0668 117.576 24.0291 117.803 23.9905C118.029 23.9518 118.254 23.9198 118.479 23.8957L118.512 23.623C118.577 23.0917 118.54 22.7285 118.402 22.5341C118.263 22.34 118.012 22.2203 117.648 22.1757C117.568 22.1659 117.477 22.1589 117.374 22.1537C117.279 22.1494 117.171 22.1541 117.051 22.1689L116.757 22.8532C116.612 23.1901 116.401 23.3414 116.125 23.3075C115.82 23.27 115.667 23.1001 115.667 22.7975C115.82 22.3951 116.101 22.0965 116.508 21.9028C116.924 21.7028 117.408 21.6368 117.961 21.7047ZM130.175 20.511L129.941 22.0563L129.683 24.1636C129.988 23.8982 130.331 23.6965 130.71 23.5583C131.089 23.4129 131.453 23.3613 131.802 23.4042C132.275 23.4622 132.604 23.6654 132.791 24.0133C132.985 24.3549 133.039 24.8821 132.951 25.5953L132.722 27.4627C132.69 27.7837 132.661 28.0829 132.634 28.3603L133.378 28.6071L133.33 29.0001L130.799 28.6892L130.847 28.2963L131.661 28.2517C131.703 27.9761 131.743 27.6783 131.782 27.3582C131.829 27.0315 131.869 26.7442 131.899 26.4967L132.013 25.5691C132.075 25.0669 132.048 24.7125 131.933 24.5063C131.818 24.3001 131.6 24.1772 131.28 24.1379C131.011 24.1049 130.75 24.1283 130.497 24.2079C130.243 24.2876 129.963 24.438 129.655 24.6588L129.361 27.0501C129.329 27.3711 129.3 27.6702 129.273 27.9476L130.008 28.1932L129.959 28.5862L127.428 28.2754L127.47 27.9365C127.137 28.2201 126.718 28.3319 126.208 28.2694C125.83 28.2229 125.54 28.0842 125.34 27.8528C125.139 27.6213 125.065 27.2944 125.117 26.8722L125.167 26.4686C125.191 26.3312 125.216 26.1563 125.242 25.9452L125.558 23.3688L124.679 23.2609C124.565 23.5718 124.343 23.7073 124.01 23.6665C123.886 23.6513 123.772 23.6151 123.668 23.5581C123.566 23.4937 123.468 23.4118 123.377 23.312L123.261 23.1756C123.023 23.309 122.817 23.4831 122.643 23.6981C122.469 23.9131 122.315 24.1713 122.182 24.4726L121.979 26.1321C121.947 26.4532 121.918 26.7529 121.891 27.0304L122.765 27.3039L122.717 27.6969L120.066 27.3714L120.114 26.9784L120.917 26.9332C120.958 26.6575 120.998 26.3592 121.038 26.0389C121.085 25.7123 121.125 25.4249 121.155 25.1775L121.219 24.6535C121.256 24.3552 121.282 24.1069 121.299 23.9096C121.323 23.7131 121.342 23.5047 121.354 23.2847L120.504 23.0806L120.551 22.6991L122.16 22.2202L122.31 22.3492L122.272 23.6526C122.508 23.2382 122.782 22.9243 123.096 22.7117C123.418 22.5 123.724 22.4123 124.015 22.448C124.182 22.4685 124.335 22.5239 124.471 22.6145C124.572 22.6815 124.649 22.76 124.703 22.8494L124.711 22.777L125.697 22.7767L126.161 21.3486L126.815 21.4289L126.568 22.9052L128.04 23.086L127.969 23.6648L126.485 23.4826L126.07 26.867C126.036 27.1436 126.066 27.3544 126.159 27.4988C126.253 27.6358 126.39 27.7158 126.572 27.7381C126.696 27.7533 126.816 27.7417 126.931 27.7041C127.053 27.6675 127.19 27.6106 127.339 27.5331L127.567 27.8487C127.556 27.8593 127.544 27.8683 127.533 27.8785L128.313 27.8298C128.354 27.5542 128.394 27.2563 128.434 26.9362C128.481 26.6096 128.52 26.3256 128.55 26.0854L129.138 21.2928L128.257 21.0733L128.303 20.6917L130.033 20.4054L130.175 20.511ZM118.429 24.3001C118.234 24.3278 118.041 24.363 117.851 24.4061C117.662 24.442 117.507 24.4749 117.385 24.5043C117.057 24.5896 116.808 24.6885 116.639 24.8008C116.471 24.9129 116.353 25.0276 116.287 25.1449C116.228 25.2632 116.192 25.3773 116.179 25.4864C116.143 25.7775 116.201 25.9952 116.354 26.1394C116.506 26.2837 116.705 26.3713 116.953 26.4016C117.062 26.415 117.165 26.4131 117.263 26.3957C117.368 26.3791 117.495 26.3392 117.643 26.2761C117.792 26.2058 117.986 26.1035 118.224 25.9702L118.429 24.3001ZM113.054 21.6116C112.85 21.5866 112.635 21.6198 112.41 21.7104C112.192 21.8018 111.992 21.9656 111.808 22.2015C111.631 22.4384 111.495 22.765 111.399 23.1818L113.385 23.4256C113.647 23.4578 113.824 23.4242 113.918 23.3249C114.018 23.2265 114.079 23.0973 114.098 22.9373C114.124 22.7263 114.093 22.5264 114.006 22.3384C113.926 22.1439 113.802 21.9805 113.634 21.849C113.473 21.7184 113.279 21.6392 113.054 21.6116Z" fill="#2683EB"/>
</svg>
