<svg width="196" height="144" viewBox="0 0 196 144" fill="none" xmlns="http://www.w3.org/2000/svg">
<path d="M65.8706 14.2383C129.972 6.51753 184.98 25.8211 188.866 57.4669C192.762 89.204 143.765 121.336 79.4263 129.236C15.088 137.135 -40.2274 117.812 -44.1247 86.0745C-48.0102 54.4298 0.691168 22.3929 64.7528 14.3755C64.9396 14.3517 65.1265 14.3273 65.3137 14.3043C65.4994 14.2815 65.6851 14.2601 65.8706 14.2383ZM65.496 15.7824C39.3316 18.995 20.7997 46.4902 24.6236 77.6333C28.4178 108.533 52.6969 130.624 78.632 127.829L78.9926 127.787L79.244 127.758C105.408 124.545 123.941 97.051 120.117 65.9081C116.293 34.7652 91.6603 12.5699 65.496 15.7824ZM51.6078 18.3797C35.566 22.4536 21.7185 29.8639 11.5365 39.2121C-1.48487 51.1672 -8.42643 66.1922 -6.55193 81.4596C-4.67732 96.7272 5.69292 109.626 21.2198 118.076C33.3592 124.683 48.5854 128.523 65.1336 128.596C43.9052 124.054 26.3466 103.872 23.147 77.8146C19.9471 51.7537 32.1045 27.9197 51.6078 18.3797ZM79.6 14.9427C100.832 19.4812 118.394 39.666 121.594 65.7268C124.793 91.7845 112.639 115.615 93.1396 125.157C109.178 121.083 123.022 113.673 133.203 104.327C146.224 92.3712 153.166 77.3465 151.291 62.0789C149.416 46.8115 139.046 33.9122 123.519 25.4623C111.378 18.8553 96.1502 15.0149 79.6 14.9427ZM40.8061 20.1532C19.113 25.225 0.175329 33.0834 -14.1774 42.4957C-33.8419 55.3915 -44.4893 70.8969 -42.648 85.8932C-40.8065 100.889 -26.7244 113.358 -4.52436 121.113C11.6822 126.775 31.9633 129.818 54.2441 129.489C21.0791 125.969 -4.89248 107.182 -8.02859 81.6409C-11.1641 56.1029 9.48497 31.5939 40.8061 20.1532ZM90.5068 14.0507C123.666 17.5739 149.632 36.3593 152.768 61.8976C155.904 87.4396 135.248 111.952 103.919 123.39C125.619 118.319 144.563 110.46 158.919 101.045C178.583 88.1492 189.23 72.6444 187.389 57.6482C185.548 42.6519 171.466 30.1828 149.266 22.4273C133.062 16.7665 112.784 13.7235 90.5068 14.0507ZM76.3025 110.397C77.6824 110.227 78.8793 110.412 79.8882 110.956L80.0725 111.055C80.9875 111.57 81.721 112.276 82.2708 113.173C82.8554 114.126 83.2152 115.158 83.3513 116.266C83.4874 117.375 83.3889 118.472 83.0548 119.558L83.0549 119.559C82.7174 120.628 82.1265 121.547 81.2837 122.315L81.283 122.315C80.4332 123.068 79.3153 123.526 77.9354 123.696C76.5746 123.863 75.3779 123.678 74.3497 123.137L74.3481 123.137C73.3447 122.595 72.5495 121.846 71.9634 120.89L71.9633 120.89C71.3766 119.917 71.0147 118.876 70.8786 117.768C70.7425 116.659 70.8438 115.581 71.1829 114.534C71.5206 113.465 72.1129 112.555 72.9585 111.806C73.8058 111.035 74.9225 110.566 76.3025 110.397ZM76.4092 111.266C75.2336 111.41 74.2843 111.813 73.5565 112.467C72.8449 113.122 72.3475 113.907 72.0639 114.823C71.7794 115.742 71.6966 116.685 71.8154 117.653C71.9342 118.62 72.244 119.525 72.7448 120.367L72.9473 120.673C73.4383 121.367 74.0563 121.926 74.8024 122.349L74.8017 122.349C75.6457 122.81 76.6533 122.971 77.8286 122.826C79.0042 122.682 79.9433 122.282 80.6509 121.63L80.6508 121.629C81.3823 120.972 81.8891 120.176 82.1704 119.241C82.4527 118.302 82.534 117.349 82.4152 116.381C82.2964 115.413 81.9878 114.518 81.4895 113.696L81.4894 113.695C80.99 112.855 80.3158 112.204 79.4668 111.741C78.623 111.28 77.6049 111.119 76.4092 111.266ZM76.6536 112.77C77.5374 112.662 78.2114 112.821 78.6512 113.272C79.0732 113.689 79.3201 114.143 79.3806 114.636C79.4478 115.184 79.331 115.684 79.0313 116.134C78.8106 116.469 78.5058 116.692 78.1229 116.809C78.3376 116.834 78.5223 116.909 78.6726 117.038C78.9078 117.239 79.0451 117.559 79.0969 117.982L79.263 119.334C79.2767 119.445 79.3021 119.576 79.3397 119.725C79.3607 119.771 79.3904 119.8 79.427 119.817C79.4671 119.836 79.5244 119.844 79.6035 119.834C79.6987 119.823 79.7565 119.781 79.7909 119.714C79.8286 119.64 79.8435 119.524 79.8227 119.354L79.6467 117.92L80.3468 117.834L80.5372 119.385C80.5704 119.655 80.5301 119.942 80.4216 120.242L80.4204 120.245C80.2963 120.559 79.9762 120.731 79.509 120.789C79.1175 120.837 78.7991 120.761 78.5709 120.546L78.5682 120.543C78.3469 120.315 78.2154 120.024 78.1726 119.675L77.9959 118.236C77.9436 117.811 77.8222 117.559 77.6554 117.446L77.652 117.443C77.5024 117.327 77.2157 117.282 76.7625 117.337L76.3387 117.389L76.6949 120.29L77.6467 120.284L77.7202 120.283L77.7934 120.879L74.6568 121.264L74.5837 120.669L74.6552 120.651L75.5496 120.431L74.7269 113.73L73.8056 113.732L73.7322 113.734L73.659 113.138L76.6536 112.77ZM76.2428 116.608L76.8444 116.534C77.3713 116.469 77.7462 116.325 77.9815 116.112C78.2058 115.908 78.3007 115.562 78.2372 115.044L78.1904 114.663C78.1321 114.189 77.9588 113.863 77.6815 113.669C77.4023 113.474 77.0018 113.4 76.4677 113.466L75.8661 113.54L76.2428 116.608ZM70.74 77.7054C71.778 77.5779 72.7251 77.7076 73.5808 78.0936C74.4365 78.4797 75.1394 79.0862 75.6885 79.9143C76.2519 80.7406 76.6088 81.7662 76.759 82.9899C76.7765 83.1321 76.7859 83.2682 76.7874 83.3979L76.8398 83.8248L69.1825 84.765C69.3625 85.5234 69.6488 86.0949 70.0417 86.4792C70.5648 86.9783 71.2179 87.1796 72 87.0836C72.5261 87.019 72.9664 86.8423 73.3206 86.5533C73.6748 86.2642 73.9126 85.8519 74.0345 85.317L76.7951 85.7585C76.6153 86.7626 76.128 87.6098 75.3323 88.2997C74.5508 88.9878 73.4982 89.4131 72.1757 89.5754C71.1379 89.7028 70.1832 89.5675 69.3117 89.1691C68.44 88.7706 67.7219 88.1579 67.1586 87.3316C66.6077 86.4893 66.2598 85.4777 66.1148 84.2968C65.9662 83.0873 66.0653 82.0131 66.412 81.075C66.757 80.1227 67.3056 79.3552 68.0568 78.7719C68.8078 78.1887 69.702 77.8329 70.74 77.7054ZM94.1449 86.5966L91.3076 86.945L91.0834 85.1187C90.9797 85.4212 90.8491 85.7017 90.689 85.9592C90.1005 86.9269 89.2301 87.4814 88.0784 87.6228C87.211 87.7293 86.4142 87.5884 85.6883 87.2009C84.9749 86.7975 84.3793 86.1776 83.9013 85.3409C83.4375 84.5025 83.1292 83.4642 82.9771 82.2264C82.8251 80.9884 82.8731 79.9059 83.1203 78.98C83.3817 78.0525 83.8103 77.3134 84.4067 76.7636C85.0156 76.1978 85.7539 75.8619 86.6212 75.7554C87.773 75.614 88.7517 75.9415 89.5568 76.7381C89.7738 76.9453 89.9683 77.1827 90.1417 77.4491L89.4338 71.6837L92.271 71.3353L94.1449 86.5966ZM57.2706 75.3507C57.6545 75.3036 57.9986 75.2831 58.3024 75.2892C58.6061 75.2952 58.9055 75.3238 59.2003 75.3742L59.4938 77.7648C59.2718 77.7199 59.0451 77.6969 58.8142 77.6963C58.5958 77.6799 58.3516 77.6881 58.0817 77.7212C57.5699 77.784 57.1869 77.961 56.934 78.2519C56.6935 78.527 56.602 78.8996 56.6596 79.3691L56.7015 79.7104L63.7618 78.8435L65.1509 90.1566L62.3144 90.5049L61.2162 81.561L56.9924 82.0796L58.0906 91.0235L55.2755 91.3692L54.1773 82.4253L52.7052 82.606L52.4143 80.2368L53.8864 80.0561L53.8576 79.8217C53.6934 78.4841 53.9124 77.4459 54.5146 76.7075C55.1292 75.9533 56.0479 75.5009 57.2706 75.3507ZM81.943 88.0948L79.1058 88.4432L77.2319 73.1819L80.0692 72.8335L81.943 88.0948ZM87.9356 78.1726C87.1963 78.2634 86.6335 78.614 86.2466 79.2247C85.8739 79.8338 85.7584 80.7149 85.8999 81.8675C86.0415 83.0199 86.3666 83.8464 86.8755 84.3472C87.3987 84.8462 88.0296 85.0502 88.769 84.9595C89.5084 84.8687 90.0647 84.5189 90.4374 83.9099C90.8242 83.2991 90.947 82.4176 90.8055 81.2652C90.664 80.1126 90.3316 79.2865 89.8084 78.7874C89.2995 78.2866 88.6751 78.0818 87.9356 78.1726ZM71.0335 80.096C70.3085 80.185 69.7527 80.535 69.3658 81.1455C69.1171 81.5407 68.9857 82.0843 68.9708 82.7759L73.6428 82.2022C73.4642 81.5345 73.2124 81.0378 72.8849 80.7134C72.4044 80.2092 71.7871 80.0034 71.0335 80.096ZM61.7698 74.4302C62.2532 74.3709 62.6776 74.4777 63.043 74.7505C63.4068 75.0091 63.6205 75.395 63.6834 75.9073C63.7462 76.4194 63.633 76.8521 63.3444 77.2052C63.0541 77.5441 62.6672 77.7432 62.1839 77.8026C61.7147 77.8603 61.2977 77.7598 60.934 77.5012C60.5686 77.2283 60.3548 76.8358 60.2918 76.3237C60.2289 75.8114 60.3422 75.3854 60.6326 75.0465C60.9212 74.6932 61.3006 74.4878 61.7698 74.4302ZM-36.6006 82.969L-35.0499 82.7786L-34.9751 83.3879L-36.5373 83.5797L-36.0999 87.1423C-36.0641 87.4334 -35.9801 87.6409 -35.8483 87.7647C-35.7175 87.8808 -35.5567 87.9273 -35.3654 87.9038C-35.2352 87.8879 -35.1155 87.8462 -35.0072 87.7785C-34.8914 87.7098 -34.767 87.6167 -34.6338 87.4993L-34.3215 87.764C-34.5856 88.2086 -35.0124 88.4673 -35.602 88.5397C-36.0001 88.5886 -36.3307 88.5199 -36.5944 88.3345C-36.8581 88.1492 -37.0177 87.8346 -37.0723 87.3903L-37.1245 86.965C-37.1347 86.8185 -37.1536 86.6338 -37.1808 86.4116L-37.5138 83.6996L-38.4667 83.8166L-38.5288 83.3111L-37.522 83.0588L-37.4125 81.4822L-36.7238 81.3976L-36.6006 82.969ZM-32.2288 82.2803C-31.8307 82.2314 -31.4599 82.2752 -31.1167 82.4119C-30.7735 82.5486 -30.4858 82.7704 -30.2539 83.0763C-30.0231 83.3745 -29.8789 83.7573 -29.8215 84.2245C-29.8055 84.3548 -29.798 84.4786 -29.7992 84.5954C-29.8014 84.7044 -29.8099 84.7987 -29.8234 84.8781L-33.4868 85.3279C-33.3849 86.031 -33.1429 86.5461 -32.7608 86.8726C-32.3788 87.1988 -31.912 87.3279 -31.3608 87.2602C-30.9933 87.2151 -30.6962 87.1047 -30.4691 86.9291C-30.2429 86.7458 -30.0405 86.5231 -29.863 86.2602L-29.5605 86.4447C-29.7251 86.8771 -29.9767 87.2383 -30.3141 87.5285C-30.6524 87.8111 -31.0821 87.9848 -31.6026 88.0487C-32.3758 88.1435 -33.0262 87.9701 -33.5544 87.5296C-34.0835 87.0813 -34.4024 86.4168 -34.5107 85.5358C-34.5831 84.946 -34.5276 84.4179 -34.3439 83.9521C-34.1525 83.4853 -33.8725 83.1045 -33.5045 82.8105C-33.1288 82.5155 -32.7035 82.3385 -32.2288 82.2803ZM-26.8582 81.6208C-26.5137 81.5786 -26.1881 81.6049 -25.8813 81.6993C-25.5743 81.7938 -25.3107 81.9446 -25.0911 82.151C-24.8725 82.3496 -24.7229 82.5877 -24.6422 82.8655C-24.66 83.1632 -24.8183 83.3304 -25.1169 83.3671C-25.3082 83.3905 -25.4596 83.3583 -25.5713 83.271C-25.6762 83.1751 -25.758 83.0494 -25.816 82.8934L-26.1161 82.1598C-26.2279 82.1347 -26.338 82.1251 -26.446 82.1306C-26.5474 82.1275 -26.6479 82.1321 -26.7474 82.1443C-27.2373 82.2045 -27.6194 82.4456 -27.8939 82.8679C-28.1608 83.2896 -28.2493 83.8684 -28.159 84.604C-28.0705 85.3242 -27.8304 85.8551 -27.4388 86.1958C-27.0473 86.5365 -26.5833 86.6736 -26.0474 86.6078C-25.7183 86.5674 -25.4249 86.4575 -25.1672 86.2781C-24.9104 86.091 -24.7109 85.8448 -24.5696 85.5397L-24.2641 85.6541C-24.3666 86.1489 -24.5824 86.5449 -24.9112 86.8419C-25.2399 87.1389 -25.6763 87.321 -26.2198 87.3878C-27.0084 87.4846 -27.6679 87.3046 -28.198 86.8486C-28.7281 86.3927 -29.0475 85.7244 -29.1557 84.8434C-29.23 84.2381 -29.1714 83.7052 -28.979 83.2461C-28.78 82.7784 -28.4913 82.405 -28.1138 82.1253C-27.7362 81.8456 -27.3176 81.6772 -26.8582 81.6208ZM167.492 54.9225L167.647 56.5605L168.41 62.7779L169.358 62.8018L169.409 63.2157L167.643 63.5488L167.465 62.7661C167.298 63.0511 167.093 63.2825 166.85 63.4601C166.616 63.6365 166.318 63.747 165.959 63.7912C165.492 63.8486 165.067 63.7798 164.686 63.5856C164.304 63.3913 163.988 63.0953 163.737 62.6983C163.493 62.2929 163.337 61.8107 163.268 61.2516C163.196 60.6618 163.24 60.1351 163.401 59.6721C163.561 59.2092 163.81 58.8321 164.148 58.5418C164.485 58.2515 164.888 58.0774 165.355 58.0201C165.623 57.9872 165.886 58.0095 166.144 58.0867C166.41 58.1629 166.679 58.3284 166.951 58.5828L166.632 55.9853L165.642 55.9899L165.592 55.5875L167.321 54.8506L167.492 54.9225ZM171.241 57.2973C171.846 57.223 172.313 57.3212 172.642 57.5919C172.969 57.855 173.178 58.3505 173.268 59.0783L173.568 61.5269C173.598 61.7719 173.658 61.9434 173.748 62.0412C173.836 62.1314 173.942 62.1692 174.064 62.1542C174.164 62.142 174.245 62.1081 174.309 62.0537C174.372 61.9993 174.43 61.9298 174.482 61.8457L174.742 62.071C174.632 62.31 174.498 62.4859 174.341 62.5985C174.19 62.7025 174.015 62.7663 173.816 62.7907C173.541 62.8246 173.301 62.7725 173.097 62.6341C172.894 62.4958 172.753 62.2952 172.674 62.0328C172.398 62.3777 172.15 62.6414 171.932 62.8238C171.713 63.0061 171.436 63.1187 171.099 63.1601C170.678 63.2118 170.299 63.1373 169.964 62.9375C169.635 62.729 169.441 62.3872 169.383 61.9121C169.356 61.6899 169.38 61.4768 169.456 61.273C169.54 61.0684 169.709 60.8575 169.962 60.6398C170.215 60.4221 170.586 60.1894 171.076 59.9426C171.245 59.8597 171.44 59.7695 171.661 59.6724C171.882 59.5752 172.105 59.4856 172.328 59.4037L172.293 59.1166C172.224 58.5573 172.094 58.1961 171.903 58.0329C171.712 57.8697 171.425 57.8118 171.042 57.8588C170.958 57.8692 170.863 57.8847 170.757 57.9055C170.658 57.9254 170.549 57.958 170.431 58.0037L170.304 58.7772C170.242 59.158 170.066 59.3667 169.775 59.4025C169.453 59.442 169.254 59.307 169.177 58.9977C169.231 58.5479 169.441 58.1718 169.807 57.8702C170.181 57.5598 170.66 57.3687 171.241 57.2973ZM175.783 56.8915L177.334 56.7011L177.408 57.3104L175.846 57.5022L176.284 61.0648C176.319 61.356 176.404 61.5635 176.535 61.6873C176.666 61.8033 176.827 61.8498 177.018 61.8264C177.148 61.8104 177.268 61.768 177.376 61.7003C177.492 61.6316 177.617 61.5385 177.75 61.4212L178.062 61.6866C177.798 62.1311 177.371 62.3899 176.782 62.4623C176.384 62.5112 176.053 62.4424 175.789 62.2571C175.526 62.0718 175.366 61.7571 175.311 61.3129L175.259 60.8876C175.249 60.7411 175.23 60.5564 175.203 60.3342L174.87 57.6221L173.917 57.7391L173.855 57.2329L174.862 56.9814L174.971 55.4047L175.66 55.3202L175.783 56.8915ZM179.903 56.2338C180.508 56.1595 180.975 56.2577 181.303 56.5284C181.631 56.7915 181.84 57.287 181.929 58.0148L182.23 60.4634C182.26 60.7084 182.319 60.8799 182.409 60.9777C182.498 61.0679 182.603 61.1058 182.726 61.0907C182.825 61.0785 182.907 61.0446 182.97 60.9902C183.033 60.9358 183.091 60.8663 183.143 60.7822L183.404 61.0075C183.293 61.2466 183.159 61.4224 183.002 61.535C182.852 61.639 182.677 61.7028 182.478 61.7273C182.202 61.7611 181.962 61.709 181.759 61.5706C181.555 61.4323 181.414 61.2317 181.335 60.9693C181.059 61.3142 180.812 61.5779 180.593 61.7603C180.375 61.9426 180.097 62.0552 179.76 62.0966C179.339 62.1483 178.961 62.0738 178.625 61.874C178.297 61.6655 178.103 61.3237 178.044 60.8486C178.017 60.6264 178.042 60.4133 178.118 60.2095C178.202 60.0049 178.37 59.794 178.623 59.5763C178.876 59.3586 179.247 59.1259 179.738 58.8791C179.906 58.7962 180.101 58.706 180.322 58.6089C180.544 58.5117 180.766 58.4221 180.989 58.3402L180.954 58.0531C180.885 57.4939 180.755 57.1327 180.564 56.9694C180.373 56.8062 180.086 56.7483 179.704 56.7953C179.619 56.8057 179.524 56.8212 179.418 56.842C179.319 56.8619 179.211 56.8945 179.092 56.9402L178.965 57.7137C178.903 58.0945 178.727 58.3032 178.436 58.339C178.115 58.3785 177.915 58.2435 177.838 57.9342C177.892 57.4844 178.102 57.1084 178.469 56.8067C178.843 56.4963 179.321 56.3052 179.903 56.2338ZM-23.1055 78.3258L-22.9509 79.963L-22.6786 82.1811C-22.434 81.8323 -22.1359 81.5392 -21.7844 81.3017C-21.4337 81.0564 -21.074 80.9106 -20.7065 80.8655C-20.2089 80.8045 -19.8205 80.9284 -19.5418 81.2363C-19.2564 81.5358 -19.0678 82.0608 -18.9756 82.8114L-18.7343 84.7768C-18.6852 85.1128 -18.6391 85.426 -18.5957 85.7161L-17.7719 85.7785L-17.7211 86.1923L-20.3858 86.5195L-20.4366 86.1057L-19.6166 85.8531C-19.6447 85.5611 -19.6795 85.2465 -19.7209 84.9095C-19.7555 84.5638 -19.7889 84.2608 -19.8209 84.0003L-19.9408 83.0237C-20.0057 82.4954 -20.1227 82.1401 -20.2925 81.9586C-20.4624 81.7773 -20.7161 81.7068 -21.053 81.7482C-21.3363 81.783 -21.5973 81.8735 -21.8358 82.0195C-22.0744 82.1654 -22.3226 82.3906 -22.5807 82.6945L-22.2717 85.2111C-22.2226 85.5471 -22.1765 85.8603 -22.1331 86.1505L-21.3208 86.2143L-21.27 86.6281L-23.9346 86.9553L-23.9855 86.5414L-23.144 86.2746C-23.1721 85.9826 -23.2068 85.668 -23.2482 85.331C-23.2829 84.9853 -23.3158 84.686 -23.3468 84.4332L-23.9663 79.3879L-24.9219 79.3882L-24.9713 78.9858L-23.2779 78.2532L-23.1055 78.3258ZM165.608 58.654C165.324 58.6888 165.07 58.8017 164.845 58.9926C164.626 59.1749 164.465 59.4441 164.361 59.7991C164.256 60.1464 164.235 60.5808 164.299 61.1018C164.392 61.8525 164.609 62.3893 164.952 62.7127C165.302 63.0275 165.706 63.1573 166.165 63.1009C166.418 63.0698 166.634 62.9925 166.813 62.8695C166.999 62.7377 167.185 62.5402 167.37 62.2763L166.979 59.0924C166.691 58.8946 166.437 58.7663 166.22 58.7074C166.003 58.6485 165.799 58.6305 165.608 58.654ZM172.38 59.829C172.188 59.9071 172 59.9925 171.817 60.0849C171.633 60.1697 171.483 60.2428 171.366 60.3039C171.053 60.4745 170.824 60.6389 170.68 60.7965C170.536 60.954 170.445 61.1009 170.408 61.2376C170.378 61.3734 170.37 61.4992 170.384 61.6141C170.422 61.9205 170.537 62.1281 170.729 62.2367C170.921 62.3453 171.147 62.3837 171.407 62.3518C171.522 62.3377 171.628 62.3093 171.724 62.2665C171.827 62.2226 171.946 62.1495 172.081 62.0474C172.215 61.9376 172.387 61.7841 172.596 61.5874L172.38 59.829ZM181.041 58.7655C180.849 58.8436 180.661 58.929 180.478 59.0214C180.295 59.1062 180.144 59.1794 180.027 59.2404C179.714 59.411 179.485 59.5754 179.341 59.733C179.198 59.8905 179.107 60.0374 179.069 60.1741C179.039 60.31 179.031 60.4357 179.046 60.5506C179.083 60.857 179.198 61.0646 179.39 61.1732C179.582 61.2818 179.808 61.3203 180.069 61.2883C180.183 61.2743 180.289 61.2459 180.384 61.2031C180.488 61.1593 180.607 61.0861 180.743 60.9839C180.877 60.8741 181.048 60.7206 181.257 60.5239L181.041 58.7655ZM-32.2333 82.8179C-32.4475 82.8443 -32.6581 82.9325 -32.865 83.0823C-33.0643 83.2312 -33.228 83.4492 -33.3558 83.737C-33.476 84.0239 -33.5317 84.3926 -33.5231 84.8426L-31.4326 84.5859C-31.1571 84.552 -30.9841 84.4723 -30.914 84.347C-30.8363 84.2209 -30.8081 84.0733 -30.8288 83.9049C-30.8561 83.683 -30.9381 83.4871 -31.0753 83.3175C-31.206 83.1391 -31.3745 83.0035 -31.58 82.9121C-31.7778 82.8197 -31.9959 82.7888 -32.2333 82.8179ZM57.7994 58.4614C58.8375 58.3339 59.7846 58.4636 60.6403 58.8496C61.496 59.2356 62.1989 59.8422 62.748 60.6703C63.3114 61.4966 63.6683 62.5222 63.8185 63.7459C63.836 63.8881 63.8454 64.0242 63.8469 64.154L63.8993 64.5808L56.2419 65.521C56.422 66.2794 56.7083 66.8509 57.1011 67.2353C57.6243 67.7343 58.2773 67.9356 59.0594 67.8396C59.5856 67.775 60.0259 67.5983 60.3801 67.3093C60.7342 67.0203 60.9721 66.6085 61.0941 66.0738L63.8546 66.5145C63.6748 67.5187 63.1875 68.3658 62.3918 69.0557C61.6103 69.7438 60.5577 70.1691 59.2352 70.3314C58.1974 70.4588 57.2427 70.3235 56.3712 69.9251C55.4995 69.5266 54.7814 68.914 54.218 68.0876C53.6672 67.2453 53.3193 66.2337 53.1742 65.0529C53.0257 63.8433 53.1248 62.7691 53.4715 61.831C53.8165 60.8787 54.3652 60.1112 55.1163 59.5279C55.8673 58.9447 56.7615 58.5889 57.7994 58.4614ZM68.0403 57.4861L71.1334 57.1063L71.4243 59.4755L68.3312 59.8553L68.9235 64.6792C68.9969 65.2767 69.2016 65.7066 69.5368 65.9688C69.8863 66.2291 70.3384 66.3253 70.8929 66.2572C71.1631 66.224 71.4095 66.172 71.6317 66.1014C71.8523 66.0165 72.08 65.9305 72.3147 65.8439L72.6292 68.4055C72.3127 68.531 71.9864 68.6364 71.6504 68.721C71.3161 68.8198 70.928 68.8957 70.4872 68.9499C69.2928 69.0965 68.3136 68.8772 67.5489 68.2923C66.7826 67.6931 66.3172 66.725 66.153 65.3875L65.5161 60.2009L64.0441 60.3817L63.7532 58.0125L65.2252 57.8317L64.9369 55.4839L67.6839 54.5832L68.0403 57.4861ZM89.5696 54.5605C90.6077 54.4331 91.5548 54.5627 92.4105 54.9488C93.2662 55.3348 93.969 55.9413 94.5181 56.7694C95.0815 57.5957 95.4384 58.6213 95.5887 59.845C95.6061 59.9872 95.6155 60.1234 95.6171 60.2531L95.6695 60.6799L88.0129 61.62C88.1929 62.3785 88.4791 62.95 88.872 63.3343C89.3952 63.8333 90.0476 64.0347 90.8296 63.9387C91.3557 63.8741 91.796 63.6975 92.1502 63.4084C92.5045 63.1194 92.7422 62.7071 92.8642 62.1722L95.6256 62.6136C95.4457 63.6178 94.9577 64.4649 94.162 65.1548C93.3804 65.843 92.3278 66.2682 91.0054 66.4306C89.9675 66.5579 89.0128 66.4226 88.1413 66.0242C87.2696 65.6257 86.5516 65.0131 85.9882 64.1867C85.4374 63.3445 85.0894 62.3328 84.9444 61.152C84.7959 59.9425 84.895 58.8682 85.2417 57.9301C85.5866 56.9778 86.1353 56.2103 86.8864 55.627C87.6375 55.0438 88.5317 54.688 89.5696 54.5605ZM53.5221 70.7516L50.3871 71.1365L48.8104 67.6689L43.1809 68.3601L42.5159 72.103L39.4443 72.4801L42.4782 57.158L46.8723 56.6185L53.5221 70.7516ZM75.6603 58.3625C75.9093 57.6964 76.2687 57.1564 76.7387 56.7428C77.287 56.271 77.9524 55.9869 78.7345 55.8909C79.4738 55.8001 80.1507 55.905 80.7649 56.205C81.3916 56.4892 81.9096 56.9458 82.3188 57.5744C82.7262 58.1888 82.9879 58.9656 83.1032 59.9047L83.9759 67.0123L81.1387 67.3607L80.3368 60.8295C80.2337 59.9901 79.9498 59.3821 79.4851 59.0058C79.0203 58.6296 78.4823 58.4788 77.871 58.5538C77.2595 58.6288 76.7734 58.9055 76.4134 59.383C76.0985 59.8008 75.9611 60.3571 76.0006 61.0519L76.0282 61.3586L76.8301 67.8897L73.9929 68.2381L72.119 52.9768L74.9563 52.6284L75.6603 58.3625ZM103.266 56.1502L102.029 56.3021C101.318 56.3894 100.779 56.6436 100.412 57.0641C100.058 57.4687 99.9356 58.1193 100.046 59.0157L100.774 64.9498L97.9369 65.2981L96.548 53.9858L99.3852 53.6374L99.6812 56.0479C99.8654 55.1979 100.198 54.5073 100.682 53.9765C101.217 53.3909 101.946 53.0409 102.87 52.9274L103.266 56.1502ZM43.6648 65.6353L47.6634 65.1444L44.8498 58.9571L43.6648 65.6353ZM58.093 60.852C57.368 60.941 56.8122 61.291 56.4253 61.9015C56.1766 62.2967 56.0452 62.8404 56.0303 63.5319L60.7023 62.9582C60.5237 62.2905 60.2719 61.7938 59.9444 61.4694C59.4639 60.9653 58.8465 60.7595 58.093 60.852ZM89.8631 56.9511C89.1382 57.0402 88.5823 57.3901 88.1955 58.0006C87.9467 58.3958 87.8153 58.9395 87.8004 59.631L92.4724 59.0573C92.2939 58.3896 92.042 57.893 91.7145 57.5686C91.2341 57.0644 90.6167 56.8586 89.8631 56.9511ZM56.1063 24.7694C56.5044 24.7205 56.8751 24.7642 57.2183 24.901C57.5615 25.0377 57.8492 25.2587 58.081 25.5646C58.312 25.8629 58.4561 26.2462 58.5135 26.7136C58.5295 26.8437 58.5369 26.967 58.5357 27.0837C58.5336 27.1928 58.5252 27.2878 58.5116 27.3672L54.8482 27.817C54.9501 28.5199 55.1921 29.0345 55.5741 29.3609C55.9562 29.6872 56.4229 29.8162 56.9742 29.7486C57.3416 29.7034 57.6388 29.593 57.8659 29.4174C58.0921 29.2341 58.2944 29.0114 58.472 28.7485L58.7744 28.9331C58.6099 29.3655 58.3583 29.7265 58.0208 30.0169C57.6826 30.2994 57.2535 30.473 56.733 30.5369C55.9597 30.6319 55.3088 30.4586 54.7806 30.0179C54.2514 29.5696 53.9325 28.9052 53.8243 28.0241C53.7519 27.4342 53.8073 26.9062 53.991 26.4404C54.1824 25.9736 54.4624 25.5929 54.8305 25.2988C55.2061 25.0038 55.6316 24.8276 56.1063 24.7694ZM61.1386 24.1515C61.7435 24.0772 62.2103 24.1754 62.5389 24.4461C62.8664 24.7092 63.0746 25.2049 63.1639 25.9326L63.4645 28.3804C63.4946 28.6255 63.555 28.7968 63.6447 28.8946C63.7335 28.9848 63.8391 29.0227 63.9616 29.0076C64.0611 28.9954 64.1426 28.9623 64.2059 28.9079C64.2691 28.8535 64.3269 28.784 64.3787 28.6999L64.6396 28.9244C64.5291 29.1634 64.3949 29.3393 64.2378 29.4519C64.0874 29.5559 63.9126 29.6205 63.7135 29.6449C63.4379 29.6788 63.198 29.6267 62.9944 29.4883C62.791 29.35 62.65 29.1494 62.5711 28.887C62.2948 29.2319 62.0473 29.4956 61.8288 29.6779C61.6103 29.8603 61.3326 29.9721 60.9958 30.0135C60.5747 30.0652 60.1964 29.9908 59.8609 29.7909C59.5322 29.5824 59.3384 29.2406 59.2801 28.7656C59.2529 28.5435 59.2775 28.3301 59.3535 28.1264C59.4373 27.9219 59.6057 27.7108 59.8586 27.4932C60.1117 27.2755 60.4832 27.0428 60.9735 26.796C61.1421 26.7131 61.3369 26.6229 61.5581 26.5258C61.7793 26.4286 62.0019 26.3397 62.225 26.2579L62.1897 25.9701C62.121 25.4109 61.9911 25.0495 61.8001 24.8863C61.609 24.7232 61.3221 24.6653 60.9393 24.7122C60.8551 24.7226 60.7599 24.7381 60.6536 24.759C60.5551 24.7788 60.4464 24.8115 60.3278 24.8571L60.2012 25.6314C60.1392 26.0121 59.9625 26.2201 59.6718 26.256C59.3502 26.2954 59.151 26.1606 59.0742 25.8512C59.1278 25.4013 59.3375 25.0253 59.7045 24.7236C60.0784 24.4132 60.5567 24.2229 61.1386 24.1515ZM73.3083 19.8221L73.4628 21.4594L73.7352 23.6774C73.9799 23.3286 74.2785 23.0355 74.6301 22.798C74.9807 22.5528 75.3399 22.4078 75.7074 22.3626C76.205 22.3016 76.5933 22.4248 76.872 22.7327C77.1574 23.0321 77.346 23.5571 77.4382 24.3078L77.6795 26.2731C77.7285 26.6093 77.7748 26.923 77.8182 27.2133L78.6418 27.2749L78.6927 27.6887L76.028 28.0159L75.9772 27.6021L76.798 27.3501C76.7699 27.058 76.7351 26.7429 76.6937 26.4058C76.659 26.0602 76.6256 25.757 76.5936 25.4966L76.4737 24.52C76.4088 23.9915 76.2912 23.6364 76.1213 23.455C75.9514 23.2736 75.6976 23.2032 75.3607 23.2446C75.0775 23.2794 74.8165 23.3699 74.5779 23.5158C74.3394 23.6618 74.0911 23.887 73.8331 24.1909L74.1421 26.7075C74.1911 27.0436 74.2374 27.3574 74.2808 27.6476L75.093 27.7106L75.1438 28.1245L72.4791 28.4516L72.435 28.0928C72.1681 28.4684 71.7678 28.6909 71.23 28.7569C70.8321 28.8057 70.5013 28.7377 70.2377 28.5525C69.974 28.3671 69.8143 28.0519 69.7597 27.6075L69.7075 27.1822C69.6973 27.0358 69.6793 26.8515 69.652 26.6294L69.319 23.9166L68.3966 24.0299C68.3595 24.3766 68.1665 24.5712 67.8158 24.6143C67.6857 24.6303 67.5605 24.6225 67.4401 24.5907C67.3187 24.5511 67.1981 24.492 67.0796 24.4133L66.9267 24.3042C66.7178 24.5008 66.5517 24.7308 66.4287 24.9946C66.3057 25.2586 66.2141 25.5616 66.1551 25.9032L66.3696 27.6502C66.4186 27.9864 66.4648 28.3001 66.5082 28.5903L67.4715 28.6464L67.5223 29.0603L64.7309 29.403L64.6801 28.9892L65.4895 28.7387C65.4614 28.4466 65.4265 28.1314 65.3851 27.7943C65.3505 27.4487 65.3171 27.1455 65.2851 26.8851L65.2174 26.3338C65.1789 26.0197 65.143 25.7593 65.11 25.5534C65.0846 25.3465 65.0502 25.129 65.0066 24.9011L64.0861 24.9095L64.0367 24.5071L65.5587 23.6087L65.7453 23.7021L66.0378 25.0426C66.1727 24.5595 66.3738 24.1691 66.6404 23.872C66.9145 23.5741 67.2049 23.4067 67.511 23.369C67.687 23.3474 67.8566 23.3651 68.0191 23.4229C68.1375 23.465 68.2349 23.5247 68.3122 23.6008L68.3032 23.5283L69.31 23.276L69.4195 21.6993L70.1082 21.6148L70.2314 23.1861L71.7821 22.9957L71.8569 23.605L70.2947 23.7968L70.7322 27.3594C70.7679 27.6505 70.852 27.8581 70.9838 27.9819C71.1146 28.098 71.276 28.1444 71.4674 28.1209C71.5974 28.1049 71.7166 28.0633 71.8248 27.9957C71.9407 27.927 72.065 27.8339 72.1982 27.7165L72.5105 27.9812C72.5025 27.9947 72.4926 28.0069 72.4843 28.0201L73.2699 27.7717C73.2418 27.4796 73.2069 27.1645 73.1655 26.8274C73.1309 26.4817 73.098 26.1824 73.0669 25.9296L72.4474 20.8842L71.492 20.8853L71.4425 20.4829L73.1366 19.7494L73.3083 19.8221ZM62.2772 26.6832C62.0848 26.7612 61.897 26.8459 61.7141 26.9383C61.5302 27.0231 61.3797 27.0963 61.2628 27.1573C60.9495 27.328 60.7208 27.4923 60.5769 27.6499C60.4331 27.8076 60.3425 27.955 60.3049 28.0918C60.275 28.2276 60.2673 28.3533 60.2814 28.4682C60.319 28.7745 60.4339 28.9823 60.626 29.0909C60.818 29.1994 61.0441 29.2372 61.3042 29.2053C61.419 29.1912 61.5243 29.1628 61.62 29.12C61.7235 29.0762 61.8432 29.003 61.9783 28.9008C62.1125 28.7911 62.2843 28.6382 62.4931 28.4416L62.2772 26.6832ZM56.1024 25.3061C55.888 25.3325 55.6769 25.4207 55.4699 25.5706C55.2707 25.7195 55.1069 25.9376 54.9791 26.2253C54.8589 26.5122 54.8032 26.881 54.8118 27.3309L56.9023 27.0742C57.1778 27.0404 57.3509 26.9613 57.4211 26.8361C57.4988 26.71 57.5269 26.5624 57.5063 26.394C57.479 26.1719 57.397 25.9755 57.2597 25.8058C57.129 25.6274 56.9605 25.4926 56.755 25.4012C56.5572 25.3088 56.3396 25.2771 56.1024 25.3061Z" fill="#2683EB"/>
</svg>
